Alien vs. Predator 1 & 2 BDRip 1080p multi [mkvonly]

############################################################################

AVP Alien vs. Predator 2004 Unrated BDRip 1080p x264 Eng Cze Spa Hin Hun Por Rus Tha Tur multisub
 
http://www.imdb.com/title/tt0370263/

Format : Matroska
File size : 5.17 GiB
Duration : 1h 48mn
Overall bit rate : 6 810 Kbps

Video
Format/Info : AVC/Advanced Video Codec
Format profile : High@L4.0
Format settings, CABAC : Yes
Format settings, ReFrames : 5 frames
Nominal bit rate : 6.1 MB/s
Width : 1 920 pixels
Height : 840 pixels
Frame rate : 23.976 fps
Stream size : 4.58 GiB (89%)
Writing library : x264 core 79


Audio ENGLISH (DEFAULT): AC-3, Constant, 640 Kbps, 6 channels

EXTERNAL AUDIO TRACKS ( AC3 6ch):

CZECH
DIRECTOR'S COMMENTARY(ENG, 2 ch)
ESPANOL
HINDI
MAGYAR 
PORTUGUESE
RUSSIAN
THAI
TURKISH

Audio Tracks are all demuxed, so download the ones you want.
Use MPC (  http://cccp-project.net/   to automatically recognize & play
the external Audio tracks or mux the Audio in MKV with  mkvmerge
(  http://www.videohelp.com/tools/MKVtoolnix   if you wish to use other player.

Subtitles: English, Arabic, Bulgarian, Chinese(3), Croatian, Czech, Estonian, Greek, Hebrew, Hindi, Hungarian, Icelandic, Indonesian, Korean + Dir Com, Latvian, Lithuanian, Philippines(Tagalog), Polish, Portuguese(Iberian+Brasil), Romanian, Russian, Serbian, Slovenian, Spanish Castilian + Latin American, Thai, Turkish

Sample: Yes
 
http://www.bilderkiste.org/show/original/9130455347434/AVP2004.jpg

 
http://www.bilderkiste.org/show/original/8130455353174/AVP2004.jpg


############################################################################

AVPR: Aliens vs Predator - Requiem (2007) BRRip 1080p x264 Eng Hun multisub
 
http://www.imdb.com/title/tt0758730/

Format : Matroska
File size : 4.44 GiB
Duration : 1h 34mn
Overall bit rate : 6.7 MB/s

Video
Format/Info : AVC/Advanced Video Codec
Format profile : High@L4.1
Format settings, CABAC : Yes
Format settings, ReFrames : 5 frames
Nominal bit rate : 6 144 Kbps
Width : 1 920 pixels
Height : 800 pixels
Frame rate : 23.976 fps
Stream size : 3.93 GiB (88%)
Writing library : x264 core 79

Audio #1 English (default) : AC-3, Constant, 640 Kbps, 6 channels
Audio #2 Magyar(external): AC-3, Constant, 448 Kbps, 6 channels, 300 MB

Subtitles: English, Arabic, Bulgarian, Croatian, Czech, Danish, Dutch, Finnish, French, Hungarian, Indonesian, Italian, Macedonian, Polish, Portuguese Br + Ib, Romanian, Russian, Serbian, Slovenian, Spanish

Sample: Yes
 
http://www.bilderkiste.org/show/original/0130455359736/Req2007.jpg

 
http://www.bilderkiste.org/show/original/0130455366671/Req2007.jpg


############################################################################

  Use MKVextractGUI ( http://www.videohelp.com/tools/MKVExtractGUI ) to mux & demux Audio tracks and Subtitles.

############################################################################

All subs show the right characters (saved under the right Unicode ISO).
In the future if you find subs not showing the right characters do the following:
If the subs are muxed in mkv download & use MKVextractGUI to extract(demux) the subtitles from mkv, and mkvmerge GUI to mux back the edited/repaired sub in the mkv.

Download "Notepad++" (free):     http://sourceforge.net/projects/notepad-plus/

The sub you demuxed from mkv: Open and save as...ANSI !(Important!)
Right click on the sub/Open with nppIExplorerShell.exe (Notepad++ exe)/click
Encoding(upper part menu)/Character sets and chose the language ISO.
Click again on Encoding/then click on Convert to UTF-8/save as...srt.
You're done with the encoding, now you can mux it back in the mkv with mkvmergeGUI, select the language & mux.

############################################################################